<?xml version="1.0" encoding="UTF-8"?>
<!DOCTYPE svg PUBLIC "-//W3C//DTD SVG 1.1//EN" "http://www.w3.org/Graphics/SVG/1.1/DTD/svg11.dtd">
<svg xmlns="http://www.w3.org/2000/svg" version="1.1" width="129px" height="71px" style="shape-rendering:geometricPrecision; text-rendering:geometricPrecision; image-rendering:optimizeQuality; fill-rule:evenodd; clip-rule:evenodd" xmlns:xlink="http://www.w3.org/1999/xlink">
<g><path style="opacity:0.962" fill="#fefffe" d="M 12.5,4.5 C 20.5,4.5 28.5,4.5 36.5,4.5C 36.5,7.16667 36.5,9.83333 36.5,12.5C 33.8806,12.7683 31.3806,12.435 29,11.5C 27,12.8333 27,14.1667 29,15.5C 29.4996,22.1583 29.6663,28.825 29.5,35.5C 26.1667,35.5 22.8333,35.5 19.5,35.5C 19.3337,28.825 19.5004,22.1583 20,15.5C 22,14.1667 22,12.8333 20,11.5C 17.6194,12.435 15.1194,12.7683 12.5,12.5C 12.5,9.83333 12.5,7.16667 12.5,4.5 Z"/></g>
<g><path style="opacity:0.857" fill="#f6e5c7" d="M 39.5,13.5 C 41.8333,13.5 44.1667,13.5 46.5,13.5C 46.5,18.1667 46.5,22.8333 46.5,27.5C 44.1667,27.5 41.8333,27.5 39.5,27.5C 39.5,22.8333 39.5,18.1667 39.5,13.5 Z"/></g>
<g><path style="opacity:0.895" fill="#f6e6c6" d="M 51.5,13.5 C 54.9783,13.1842 58.3117,13.6842 61.5,15C 62.4061,16.6995 62.7394,18.5328 62.5,20.5C 53.1667,20.8333 53.1667,21.1667 62.5,21.5C 62.822,23.7224 62.1554,25.5557 60.5,27C 50.658,29.6966 46.8247,26.1966 49,16.5C 49.6979,15.3094 50.5313,14.3094 51.5,13.5 Z"/></g>
<g><path style="opacity:0.896" fill="#f6e5c7" d="M 64.5,15.5 C 69.1667,15.5 73.8333,15.5 78.5,15.5C 77.7569,19.423 77.7569,23.423 78.5,27.5C 73.8333,27.5 69.1667,27.5 64.5,27.5C 64.5,23.5 64.5,19.5 64.5,15.5 Z"/></g>
<g><path style="opacity:0.878" fill="#f6e5c6" d="M 79.5,15.5 C 84.544,15.1725 89.544,15.5059 94.5,16.5C 91.8929,17.3184 89.2263,17.8184 86.5,18C 88.1341,18.4935 89.8008,18.6602 91.5,18.5C 91.5,20.5 91.5,22.5 91.5,24.5C 89.8008,24.3398 88.1341,24.5065 86.5,25C 89.2263,25.1816 91.8929,25.6816 94.5,26.5C 89.544,27.4941 84.544,27.8275 79.5,27.5C 79.5,23.5 79.5,19.5 79.5,15.5 Z"/></g>
<g><path style="opacity:0.973" fill="#f6e6c7" d="M 95.5,15.5 C 100.875,15.1718 106.208,15.5052 111.5,16.5C 109.577,17.3078 107.577,17.8078 105.5,18C 106.451,21.0567 106.784,24.2234 106.5,27.5C 104.5,27.5 102.5,27.5 100.5,27.5C 100.216,24.2234 100.549,21.0567 101.5,18C 98.9488,17.9977 96.9488,17.1644 95.5,15.5 Z"/></g>
<g><path style="opacity:0.929" fill="#fefffe" d="M 36.5,32.5 C 41.8437,32.334 47.1771,32.5006 52.5,33C 58.0248,35.9188 59.8581,40.4188 58,46.5C 55.1806,50.4929 51.3473,52.1596 46.5,51.5C 46.5,55.5 46.5,59.5 46.5,63.5C 43.1667,63.5 39.8333,63.5 36.5,63.5C 36.5,56.5 36.5,49.5 36.5,42.5C 40.5705,42.2338 44.5705,42.5672 48.5,43.5C 51.1667,42.5 51.1667,41.5 48.5,40.5C 44.5705,41.4328 40.5705,41.7662 36.5,41.5C 36.5,38.5 36.5,35.5 36.5,32.5 Z"/></g>
<g><path style="opacity:0.877" fill="#f6e5c6" d="M 64.5,41.5 C 67.5184,41.3354 70.5184,41.502 73.5,42C 74.3081,42.3076 74.9747,42.8076 75.5,43.5C 76.4328,47.4295 76.7662,51.4295 76.5,55.5C 73.6062,55.9577 71.1062,55.291 69,53.5C 66.8938,55.291 64.3938,55.9577 61.5,55.5C 61.3347,51.8183 61.5014,48.1516 62,44.5C 62.6979,43.3094 63.5313,42.3094 64.5,41.5 Z"/></g>
<g><path style="opacity:0.903" fill="#f6e5c6" d="M 110.5,41.5 C 115.167,41.5 119.833,41.5 124.5,41.5C 127.662,53.6722 123.329,58.0055 111.5,54.5C 113.423,53.6922 115.423,53.1922 117.5,53C 111.09,51.7716 108.756,47.9383 110.5,41.5 Z"/></g>
<g><path style="opacity:0.884" fill="#f6e6c6" d="M 77.5,43.5 C 82.2973,43.1211 86.964,43.6211 91.5,45C 92.6034,46.6804 92.2701,48.1804 90.5,49.5C 92.0863,51.1727 92.7529,53.1727 92.5,55.5C 90.1667,55.5 87.8333,55.5 85.5,55.5C 85.1667,50.1667 84.8333,50.1667 84.5,55.5C 82.1667,55.5 79.8333,55.5 77.5,55.5C 77.5,52.5 77.5,49.5 77.5,46.5C 80.1873,46.6641 82.854,46.4974 85.5,46C 82.3248,46.0533 79.6581,45.22 77.5,43.5 Z"/></g>
<g><path style="opacity:0.973" fill="#f6e6c7" d="M 93.5,43.5 C 98.8746,43.1718 104.208,43.5052 109.5,44.5C 107.577,45.3078 105.577,45.8078 103.5,46C 104.451,49.0567 104.784,52.2234 104.5,55.5C 102.5,55.5 100.5,55.5 98.5,55.5C 98.2161,52.2234 98.5495,49.0567 99.5,46C 96.9488,45.9977 94.9488,45.1644 93.5,43.5 Z"/></g>
<g><path style="opacity:0.751" fill="#fefffe" d="M -0.5,66.5 C 42.5,66.5 85.5,66.5 128.5,66.5C 128.5,67.8333 128.5,69.1667 128.5,70.5C 85.5,70.5 42.5,70.5 -0.5,70.5C -0.5,69.1667 -0.5,67.8333 -0.5,66.5 Z"/></g>
</svg>
