<?xml version="1.0" encoding="UTF-8"?>
<svg version="1.1" viewBox="0 0 2048 2027" width="197" height="195" xmlns="http://www.w3.org/2000/svg">
<path transform="translate(923)" d="m0 0 6 1h164l41-1 1 2 3 54 1 10 93 1 39 1 1 1v69l-3 2-129-1 1 5v132l61 1 3 1 1 65-6 2h-132l-3-2v-59l1-3h-28l-52-1-2-1v-66h-18l-41-2-4-1v17l-1 50h-71v68l-1 1-136-1v75h68l2 2v69l63-1 1-142 3-2h22l46 1 3 2v151l39 1h29l2-78h45l30 1v77h69v-27l1-47 1-1h69l1 2-1 73h716l5 25 7 24 7 16 9 15 11 13 10 10 13 9 10 6 12 5 22 5 19 4 2 1v31l-14 10-4 4h-2l-2 4-7 8-7 15-3 12 2 11 5 11 6 9 10 9 13 9 3 2v19l-10 6-15 14-7 10-6 15-1 4v11l4 11 6 8 9 7 17 9 3 1v18l-13 8-9 7-5 4-7 10-5 10-2 7v14l4 12 7 10 7 7 13 8 10 7v17l-10 6-13 11-7 8-9 17-2 9 1 11 5 10 9 10 10 6 14 8 2 2v22l-11 7-12 9-9 11-5 11-2 6v13l6 12 8 9 22 12 3 2v23l-13 9-10 9-7 8-7 14-3 11 1 11 4 9 6 9 10 7 14 6 5 2v45l-4 1-27 1-18 4-21 11-13 10-10 9-12 14-10 17-8 19-5 19-5 22-3 8-2 22-1 46h137v138l1 4-2 2-33 1h-30l-3-2v-65h-62l-9-1 1 2v134h22l43 2 3 1v138l-1 1-35 1h-25l-7-1 1 64-1 1h-428l-1-22v-43l-62-2-5-1-1-9v-21l1-34 1-5h66v-68h-153l-122 1v138l15-1h191l3 4v22l-1 41-210 1-1-11v-56h-19l-47-2-1-1-1-9-2-56h-31l-110-1-3-1-1-2-1-12v-115l1-6h148l1 4 2 47v14h63v-134l-15-1-44-1-3-1-1-2v-73l2-3h57l5-1v-58l1-4h-28l-84-2-21-1-6-2-9-1-54-2-51-1h-104l-69 1-1 1-213-1h-56l-42 1-96 1h-191l-30-1-4-2-3-24-6-20-6-15-8-14-8-11-11-13-14-11-13-8-16-8-18-6-22-5-18-3-1-1v-7l3-7-3-1v-7l1-5 20-7 13-7 11-9 6-9 5-13 1-5v-8l-4-14-6-10-4-5-13-9-12-5-18-5v-10l29-12 15-12 9-12 6-14v-11l-5-13-7-10-10-9-16-8-15-6-6-2v-11l12-5 16-8 11-8 5-4 6-9 5-15v-9l-5-13-7-11-9-9-11-7-11-5-11-3-1-1v-9l16-8 14-8 11-11 8-14 2-7v-11l-5-13-9-12-10-10-15-9-12-6v-7l30-15 9-7 8-8 5-9 3-12-1-10-4-12-7-11-10-10-10-6-23-10v-12l24-10 12-7 10-9 5-8 3-14-1-11-5-13-7-11-10-8-16-8-13-6-2-8v-13l4-5 8-4 29-6 14-5 16-8 17-12 10-8 11-11 11-15 6-10 7-15 7-22 5-19 1-2 14-1h224l186 1v-305l1-56 2-3 57-3 6-1 1-14 1-34 1-15 2-1 67 1 1 1v132l69 1v-104l1-30h43l26 1 1 1v118l-1 16 2-1 64-1 5-1-1-4v-123l1-74zm67 142-1 65h72l1-3v-61l-1-1zm-211 66v66l32 1h35v-63l-2-1-37-1-19-1zm-137 217-1 3v76h44l50-2 45-3 1-2-1-4h-32l-40 1-1-68-4-1zm845 1102-1 1v149h210l1-105v-44l-1-1h-44l-69 1-65-1zm-94 4-49 3-68 1-1 16-1 32v19h-70l1 3v75l67 2 2 1 1 39 1 19 2 1 36 1h92l3-1 1-58-1-1-24-2-36-2-7-2-1-8v-133h14l49-2 2-1v-2zm381 72-1 3v140h46l16-1 1-1 3-50 2-12 55-1 9-1 1-3v-68l1-5zm-217 145-1 32v31l208 1 2-1 1-62-151-1zm-75 137 1 61 1 8 63-1 1-1v-65l-5-1zm142 3v62l43 1h28l1-5v-57l-25-1zm219 0-1 61 1 1 32 1h31v-62l-8-1z" fill="#46B1C4"/>
<path transform="translate(923)" d="m0 0 6 1h164l41-1 1 2 3 54 1 10 93 1 39 1 1 1v69l-3 2-129-1 1 5v132l61 1 3 1 1 65-6 2h-132l-3-2v-59l1-3h-28l-52-1-2-1v-66h-18l-41-2-4-1v17l-1 50h-71v68l-1 1-136-1v75h68l2 2v69l63-1 1-142 3-2h22l46 1 3 2v151l39 1h29l2-78h45l30 1v77h69v-27l1-47 1-1h69l1 2-1 73h716l5 25 7 24 7 16 9 15 11 13 10 10 13 9 10 6 12 5 22 5 19 4 2 1v31l-14 10-4 4h-2l-2 4-7 8-7 15-3 12 2 11 5 11 6 9 10 9 13 9 3 2v19l-10 6-15 14-7 10-6 15-1 4v11l4 11 6 8 9 7 17 9 3 1v18l-13 8-9 7-5 4-7 10-5 10-2 7v14l4 12 7 10 7 7 13 8 10 7v17l-10 6-13 11-7 8-9 17-2 9 1 11 5 10 9 10 10 6 14 8 2 2v22l-11 7-12 9-9 11-5 11-2 6v13l6 12 8 9 22 12 3 2v23l-13 9-10 9-7 8-7 14-3 11 1 11 4 9 6 9 10 7 14 6 5 2v45l-4 1-27 1-18 4-21 11-13 10-10 9-12 14-10 17-8 19-5 19-5 22-3 8-2 22-1 46h137v138l1 4-2 2-33 1h-30l-3-2v-65h-62l-9-1 1 2v134h22l43 2 3 1v138l-1 1-35 1h-25l-7-1 1 64-1 1h-428l-1-22v-43l-62-2-5-1-1-9v-21l1-34 1-5h66v-68h-153l-122 1v138l15-1h191l3 4v22l-1 41-210 1-1-11v-56h-19l-47-2-1-1-1-9-2-56h-31l-110-1-3-1-1-2-1-12v-115l1-6h148l1 4 2 47v14h63v-134l-15-1-44-1-3-1-1-2v-73l2-3h57l5-1v-58l1-4h-28l-84-2-21-1-6-2-9-1-54-2-51-1h-104l-69 1-1 1-213-1h-56l-42 1-96 1h-191l-30-1-4-2-3-24-6-20-6-15-8-14-8-11-11-13-14-11-13-8-16-8-18-6-22-5-18-3-1-1v-7l3-7-3-1v-7l1-5 20-7 13-7 11-9 6-9 5-13 1-5v-8l-4-14-6-10-4-5-13-9-12-5-18-5v-10l29-12 15-12 9-12 6-14v-11l-5-13-7-10-10-9-16-8-15-6-6-2v-11l12-5 16-8 11-8 5-4 6-9 5-15v-9l-5-13-7-11-9-9-11-7-11-5-11-3-1-1v-9l16-8 14-8 11-11 8-14 2-7v-11l-5-13-9-12-10-10-15-9-12-6v-7l30-15 9-7 8-8 5-9 3-12-1-10-4-12-7-11-10-10-10-6-23-10v-12l24-10 12-7 10-9 5-8 3-14-1-11-5-13-7-11-10-8-16-8-13-6-2-8v-13l4-5 8-4 29-6 14-5 16-8 17-12 10-8 11-11 11-15 6-10 7-15 7-22 5-19 1-2 14-1h224l186 1v-305l1-56 2-3 57-3 6-1 1-14 1-34 1-15 2-1 67 1 1 1v132l69 1v-104l1-30h43l26 1 1 1v118l-1 16 2-1 64-1 5-1-1-4v-123l1-74zm67 142-1 65h72l1-3v-61l-1-1zm-211 66v66l32 1h35v-63l-2-1-37-1-19-1zm-137 217-1 3v76h44l50-2 45-3 1-2-1-4h-32l-40 1-1-68-4-1zm474 102-71 1h-182l-634 2-7 2-6 7-15 40-9 17-8 12-8 9-8 7-11 9-15 10-16 7-19 5-21 5-2 2-1 4-1 42v58l1 514v87l3 2 24 5 16 5 15 6 16 9 10 8 10 9 9 11 8 13 8 15 7 19 8 25 4 3 7 1h226l165 1h768l132-1 38-1 1-1v-968l-30-1zm371 1e3 -1 1v149h210l1-105v-44l-1-1h-44l-69 1-65-1zm-94 4-49 3-68 1-1 16-1 32v19h-70l1 3v75l67 2 2 1 1 39 1 19 2 1 36 1h92l3-1 1-58-1-1-24-2-36-2-7-2-1-8v-133h14l49-2 2-1v-2zm381 72-1 3v140h46l16-1 1-1 3-50 2-12 55-1 9-1 1-3v-68l1-5zm-217 145-1 32v31l208 1 2-1 1-62-151-1zm-75 137 1 61 1 8 63-1 1-1v-65l-5-1zm142 3v62l43 1h28l1-5v-57l-25-1zm219 0-1 61 1 1 32 1h31v-62l-8-1z" fill="#46B1C4"/>
<path transform="translate(1596,501)" d="m0 0h325l5 25 7 24 7 16 9 15 11 13 10 10 13 9 10 6 12 5 22 5 19 4 2 1v31l-14 10-4 4h-2l-2 4-7 8-7 15-3 12 2 11 5 11 6 9 10 9 13 9 3 2v19l-10 6-15 14-7 10-6 15-1 4v11l4 11 6 8 9 7 17 9 3 1v18l-13 8-9 7-5 4-7 10-5 10-2 7v14l4 12 7 10 7 7 13 8 10 7v17l-10 6-13 11-7 8-9 17-2 9 1 11 5 10 9 10 10 6 14 8 2 2v22l-11 7-12 9-9 11-5 11-2 6v13l6 12 8 9 22 12 3 2v23l-13 9-10 9-7 8-7 14-3 11 1 11 4 9 6 9 10 7 14 6 5 2v45l-4 1-27 1-18 4-21 11-13 10-10 9-12 14-10 17-8 19-5 19-5 22-2 3h-294l-18-1-1-26v-886l-1-91-1-22z" fill="#FAE1C8"/>
<path transform="translate(824,1526)" d="m0 0h194l42 1h77l11 1 42 1h146l43-1 70-1h37v150l131-1 79 1v-105l1-44h216l-2 13-1 14-1 46h137v138l1 4-2 2-33 1h-30l-3-2v-65h-62l-9-1 1 2v134h22l43 2 3 1v138l-1 1-35 1h-25l-7-1 1 64-1 1h-428l-1-22v-43l-62-2-5-1-1-9v-21l1-34 1-5h66v-68h-153l-122 1v138l15-1h191l3 4v22l-1 41-210 1-1-11v-56h-19l-47-2-1-1-1-9-2-56h-31l-110-1-3-1-1-2-1-12v-115l1-6h148l1 4 2 47v14h63v-134l-15-1-44-1-3-1-1-2v-73l2-3h57l5-1v-58l1-4h-28l-84-2-21-1-6-2-9-1-54-2-51-1h-173v-1zm569 5-49 3-68 1-1 16-1 32v19h-70l1 3v75l67 2 2 1 1 39 1 19 2 1 36 1h92l3-1 1-58-1-1-24-2-36-2-7-2-1-8v-133h14l49-2 2-1v-2zm381 72-1 3v140h46l16-1 1-1 3-50 2-12 55-1 9-1 1-3v-68l1-5zm-217 145-1 32v31l208 1 2-1 1-62-151-1zm-75 137 1 61 1 8 63-1 1-1v-65l-5-1zm142 3v62l43 1h28l1-5v-57l-25-1zm219 0-1 61 1 1 32 1h31v-62l-8-1z" fill="#075678"/>
<path transform="translate(923)" d="m0 0 6 1h164l41-1 1 2 3 54 1 10 93 1 39 1 1 1v69l-3 2-129-1 1 5v132l61 1 3 1 1 65-6 2h-132l-3-2v-59l1-3h-28l-52-1-2-1v-66h-18l-41-2-4-1v17l-1 50h-71v68l-1 1-136-1v75h68l2 2v69l63-1 1-142 3-2h22l46 1 3 2v102l-1 49-18 1-62 1h-50l-21-1v-2l12-1v-5l-70 2-2-1-1-3-1-65h-64v21l-1 56h-62l-9-3v-301l1-56 2-3 57-3 6-1 1-14 1-34 1-15 2-1 67 1 1 1v132l69 1v-104l1-30h43l26 1 1 1v118l-1 16 2-1 64-1 5-1-1-4v-123l1-74zm67 142-1 65h72l1-3v-61l-1-1zm-211 66v66l32 1h35v-63l-2-1-37-1-19-1z" fill="#075678"/>
<path transform="translate(9)" d="m0 0 108 2h234l112-1 37-1 1 2v488l-1 1h-492v-485zm71 74-1 85v61l1 199h339l8-1 1-37v-306l-146-1z" fill="#075678"/>
<path transform="translate(1557)" d="m0 0 64 1 116 1h142l130-1 33-1 3 2v35l-1 255v188l4 2v7l-4 1-49 1h-436l-5-2-1-1v-482l3-5zm71 74-1 1-1 19v318l1 6 13 1h329l5-1v-343l-125-1z" fill="#075678"/>
<path transform="translate(573,1603)" d="m0 0 341 1 3 1v143l-1 1h-67l1 4-1 60 28 1 38 2 2 1 1 5 1 19 1 42h33l33 1 2 4-1 65-1 1-137 1-1 1-67 1 1 2v62h-208l-2-2-1-10v-54l1-1h63v-66l-39-2-17-1-7-2-1-1-1-15v-228l1-32zm141 80v63h130l3-1v-60l-1-1-46-1zm0 205v62l62 1v-62l-36-1z" fill="#075678"/>
<path transform="translate(8,1533)" d="m0 0h122l34 1h333l2 4v482l-1 1h-489l-1-1-1-47v-84zm69 72v343l1 1h346l1-1v-343z" fill="#075678"/>
<path transform="translate(1116,527)" d="m0 0h412l30 1v968l-1 1-38 1-132 1h-768l-165-1h-226l-9-2-3-5-12-36-8-16-9-16-9-10-7-8-10-8-11-7-16-8-20-7-23-5-7-2-1-3v-85l-1-514v-58l1-42 2-5 9-3 29-7 12-5 12-6 15-11 12-11 6-5 9-12 9-16 7-16 9-26 5-8 5-4 5-1 634-2h182zm261 14-159 1-69 1h-859l-60 1-4 4-11 33-9 19-11 16-9 11-8 7-10 9-14 9-19 9-26 7-12 3-1 1v685l1 2 32 8 16 6 16 8 14 9 10 8 9 9 11 16 11 21 6 18 5 22 1 1 32 1h1247l40-1v-833l-1-104-1-6-38-1z" fill="#F7F3EA"/>
<path transform="translate(1349)" d="m0 0 46 1h46l39-1 1 2v138l-4 2-32 1h-29l1 5v14l-2 47 3-1h62l1 45v237l-34 1h-31l-3-3-1-13v-127h-132l-7-1-1-1v-66l2-3h138l1-62 1-4h-61l-7-1-1-1v-66l1-2 67-1-1-5-3-57-1-3-57-4-5-1-1-12v-38l1-17z" fill="#075779"/>
<path transform="translate(579,851)" d="m0 0h109l16 1 14 3 17 7 15 9 10 8 11 11 11 16 5 11 4 16v22l-3 14-5 12-9 14-9 11-9 8-13 8-14 6-22 6-33 6h-2v112l-1 1-53 1h-43l-3-3-1-89v-104l1-4h107l1 2 1 11 5-2 8-6 11-7 3-6-2-6-4-5-8-7-7-6-7-3v17h-104l-4-1v-75l1-8z" fill="#FBFCFC"/>
<path transform="translate(1706,140)" d="m0 0h189l11 1 1 1 1 201-1 1-49 1h-153l-3-1-1-3v-198l1-2z" fill="#075678"/>
<path transform="translate(156,1681)" d="m0 0h196l1 2v199l-1 1-134 1h-63l-7-2-1-1v-197l1-2z" fill="#075678"/>
<path transform="translate(148,140)" d="m0 0h196l8 1 1 1v199l-3 1-190 1-11-1-2-2v-196z" fill="#075678"/>
<path transform="translate(214,1187)" d="m0 0h1281l2 5v26l-11 1h-117l-682-1h-169l-204 1h-114l-3-2-1-3v-21l5-5z" fill="#FBFCFC"/>
<path transform="translate(343,581)" d="m0 0h188l24 1 4 2v69l-1 1-23 1h-44l-1-1 1-14-6 1-13 10-7 7-5 2 1 7 3 4v2l4 2 11 10 9 7 2 4 1 20v103l-1 63-1 1-63 2h-34l-1-1-1-32v-117l1-40 5-6 8-7 14-12 4-6-8-7-9-7-7-7-5-2-1 8-3 5-13 1-29 1h-23l-3-3v-49l1-18 4-4z" fill="#FBFCFC"/>
<path transform="translate(1116,527)" d="m0 0h29l59 1h45l19 1 5 3 15 3 4 3 6 1 181 1v1l-102 1-159 1-69 1h-859l-60 1-3 3-11 33-9 19-11 16-10 12-8 7-10 9-14 9-19 9-26 7-12 3v687l13 2v1l-11-1-6-2-2-4-1-46h-2v54l-1 4 12 2 17 4 15 5 14 6 9 3 17 10v2h2l6 7 5 4 10 14 6 11 10 20 3 16 6 22-1 2-4-10-10-30-8-16-9-16-9-10-7-8-10-8-11-7-16-8-20-7-23-5-7-2-1-3v-85l-1-514v-58l1-42 2-5 9-3 29-7 12-5 12-6 15-11 12-11 6-5 9-12 9-16 7-16 9-26 5-8 5-4 5-1 634-2h182z" fill="#F7F3EA"/>
<path transform="translate(888,934)" d="m0 0h21l17 3 13 5 11 6 10 9 3 7 1 9v95l-4 2-58 1-1-1v-23l-11-1 1 3 1 20-4 1-34 1h-25l-1-3v-104l4-7 11-8 12-7 15-5 9-2z" fill="#FAE2C8"/>
<path transform="translate(858,664)" d="m0 0h45l10 1 2 2-1 21-2 3v3l19 1v-12l-2-18 2-1h49l10 2v21l-2 23-3 5-9 4-4 3 2 4 12 6 3 4 1 7v55l-1 1-14 1-27 1h-17l-1-3-1-52-15 1-2 2 2 5 1 10v36l-1 1h-57l-3-1v-81l-1-54z" fill="#FAE2C8"/>
<path transform="translate(998,935)" d="m0 0h73l17 3 17 8 12 11 4 5 2 6v17l-4 6-11 9-1 4 15 14 4 8 2 15 1 12v16l-4 1-55 2-4-1-1-1v-24l1-20 2-2 1-5-20 1-1 5 1 2 1 15v28l-1 1h-59l-1-2v-102l1-3 14 1 48 1h17l2-11-59 1h-23l-1-9v-10l1-1z" fill="#FAE2C8"/>
<path transform="translate(1343,934)" d="m0 0h34l6 2v29l-3 19-1 7 3 3h9l8-3v-9l-2-15v-33h44l17 1 1 1v90l-2 17-3 6-11 10-12 6-16 4-17 2-7 1h-55l-5-5-1-3v-14l1-1h52l12-1 4-11h-19l-13-2-16-6-16-9-5-4-4-7-3-8-2-16v-49l1-1z" fill="#FAE1C8"/>
<path transform="translate(1145,527)" d="m0 0h383l30 1v968h-28l-3-5-9-1-2-1v-2l-2-1 32-1v-833l-1-110h-38l-28-1-181-1-7-2-3-2-15-3-5-3-28-1h-36l-59-1z" fill="#FBFCFB"/>
<path transform="translate(1016,664)" d="m0 0h134l3 1v17l-2 4-39 1-39-1v2h-2l1 7 4 4 10-1 23-3h11l1 1 1 25v48h-25l-8-1-19-1 1 12h78l4 4 1 5v11l-1 1-25 2h-111l-1-2-1-78v-57z" fill="#FAE2C8"/>
<path transform="translate(749,664)" d="m0 0h29l18 4 15 8 10 9 5 6 4 12 1 9v16h-63l-1-3v-20l2-2 1-4-5-1h-9l-1 1v18l-1 42-3 5-1 3h20l-2-13v-18h46l16 1 1 1-1 23-2 10-4 7-12 10-16 8-12 3-8 1h-32l-16-3-12-5-9-6-5-4-5-8-4-17-1-9v-29l2-21 3-7 7-8 13-9 12-6 12-3z" fill="#FAE2C8"/>
<path transform="translate(9)" d="m0 0 7 1 2 3 5 2 2 5-4 2-6 9 3 6v24l-1 17-1 7-1 15v25l1 13v12l-2 9 1 10 1 29-2 5 2 4v11l2 8-1 11-1 3h2l3 13-1 7 2 10h-2l2 9 2 7 2 5v15l2 1 1 7-1 4 11-3 5 2v5h-3l4 7v2h2l-1 2v2l3 3 1 10v9l2 8v3h2l-1 7-2 4v3l3-1 1 3-2 5 1 4 2 7 1 3h9l-2 7-5 1-2 6-1 2-4-2h-2l-4-8-3-3-2-4h-2l-1-2-3 1 2 5-4 4h-1l-1-7-5-2-3-1v2l3 1-1 5h-2v4l-1 5 1 9-2 1 1 6 2 2-1 5 2 3 4 5 4-1 1-2-2-1 1-2 3 1v5l2 4 1 3h4l-3 2h-2l3 5 7 1 3 1v5l6-2 1-3 7-1 3-1v-2l4-3 2 4h5l1-4 4-2h9l6 1h10l6 3 4 5 6 1-1 5-2 4-4 1v-5l-5 1v4l-1 3-4 1h2v3h-2v2l-12 4h-2v2h-6v2l2 1-3 1v2h6l4-1-5 4-20 1h-64v-485z" fill="#064E73"/>
<path transform="translate(638,1248)" d="m0 0h19l6 3 3 4 3 15 1 14 4 12 3 2 3-10 4-16 4-20 2-3 6-1h21l7 3 4 6 7 24 12 43 3 14v10l-8 2-8 1h-15l-6-4-3-12-6-31-4-7-5 23-6 18-4 8-3 2-11 1-5-3-4-10-6-18-3-22-3 3-6 26-4 18-5 6-3 1h-31l-1-1 1-8 10-28 13-49 3-10 5-5z" fill="#FBFCFC"/>
<path transform="translate(1175,664)" d="m0 0h122l20 1 2 1v12l-4 6-17 2-18 1h-20l3 7 8 9 3 9 2 60v27l-4 1-45 2h-14v-92l3-7 12-12 2-4-58-1v-21z" fill="#FAE2C8"/>
<path transform="translate(1228,934)" d="m0 0h67l2 2v12l-3 7-21 1h-34l5 10 6 8 3 8 2 58v29l-1 1-35 2h-27v-93l2-5 13-12 1-6h-54l-3-3-2-5v-9l3-3 28-1z" fill="#FAE2C8"/>
<path transform="translate(1055,1246)" d="m0 0h29l12 3 9 6 8 9 7 14 2 11v16l-2 13-4 11-6 8-5 6-12 6-12 3-8 1h-24l-12-5-8-7-7-10-4-9-3-16v-16l4-15 6-11 8-9 10-6z" fill="#FBFCFC"/>
<path transform="translate(490,1248)" d="m0 0h33l17 2 16 4 11 5 11 7 4 3v2h2l6 9 2 6v19l-4 13-9 13-9 8-16 8-16 3-11 1h-31l-5-2-2-10-1-24v-65z" fill="#FBFCFC"/>
<path transform="translate(158,632)" d="m0 0 2 1-14 11-12 7-15 5-24 5-7 2-1 1v233l3-1 1-17v-67l1-42v-76l1-18 1-5 9-3 13-3h5l-4 2-20 5v687l13 2v1l-11-1-6-2-2-4-1-46h-2v54l-1 4 12 2 17 4 15 5 14 6 9 3 17 10v2h2l6 7 5 4 10 14 6 11 10 20 3 16 6 22-1 2-4-10-10-30-8-16-9-16-9-10-7-8-10-8-11-7-16-8-20-7-23-5-7-2-1-3v-85l-1-514v-58l1-42 2-5 9-3 29-7 12-5 12-6z" fill="#EEF3F0"/>
<path transform="translate(609,664)" d="m0 0h53l3 1 1 2v132l-1 1-33 1h-28v-67l1-69z" fill="#FAE2C8"/>
<path transform="translate(1116,527)" d="m0 0h29l59 1h45l19 1 5 3 15 3 4 3 6 1 181 1v1l-102 1-159 1-69 1h-622v-1l357-1 1-2 8-3-3-1-36-2h-12l-19 1h-31l-30-1h-39l-21-1-7-1-4 1-43 4-12 1-18-2-20-2-13-3-51-1v-1l329-1h182z" fill="#ECF3F1"/>
<path transform="translate(400,1247)" d="m0 0h25l7 2 7 8 6 16 12 43 6 21 1 10-5 3-16 1h-16l-3-5-3-12-7-2h-7l-5 2-3 12-3 3-16 2h-17l-4-3 1-8 11-31 9-31 7-20 5-7z" fill="#FBFCFC"/>
<path transform="translate(990,423)" d="m0 0h45l30 1v77l-17 1h-20l-39-1v-42z" fill="#075678"/>
<path transform="translate(989,1603)" d="m0 0 72 2 1 1v69l-2 1h-68l-5-2v-64z" fill="#085779"/>
<path transform="translate(1269,1247)" d="m0 0h64l2 2v9l-22 2-4 2v20l1 4 4 1 15 1 5 3 1 2v6l-4 2-23 2-1 6v12l3 13 3 3 18 1 5 3 1 6-3 3-3 1-22 1h-38l-3-3-1-18v-82z" fill="#FBFCFC"/>
<path transform="translate(1136,426)" d="m0 0h69l1 2-1 73h-69l-1-1v-73z" fill="#075678"/>
<path transform="translate(991,1953)" d="m0 0 70 1 2 6v61h-75l-1-4v-62z" fill="#085779"/>
<path transform="translate(1761,608)" d="m0 0h54l14 3 11 7 8 9 7 14 4 16-1 5-2 1h-10l1-4v-9l-5-12-6-9-9-6-5-2h-9v6l2 5 1 6v10l-3 6-9 6-10 4-10 2h-18l-11-3-8-5-7-8-3-8-1-5v-7l3-10 7-7 10-4z" fill="#CF8E59"/>
<path transform="translate(1145,527)" d="m0 0h383l30 1v679l-1 183h-1v-292l1-569h-12v8 4 1h-38l-28-1-181-1-7-2-3-2-15-3-5-3-28-1h-36l-59-1z" fill="#F2F3ED"/>
<path transform="translate(1201,212)" d="m0 0h53l18 1v65l-2 2-66-3-3-3z" fill="#075779"/>
<path transform="translate(1273,425)" d="m0 0 41 1 28 1 1 4v59l-1 1h-69l-1-4v-52z" fill="#09587A"/>
<path transform="translate(1738,888)" d="m0 0h8l4 24 5 10 7 7 8 4h13l-5-17v-10l3-7 9-6 11-3 8-1h21l12 3 8 6 6 8 2 5v13l-4 8-8 7-9 4-14 2h-45l-12-3-13-7-7-8-5-11-4-16v-11z" fill="#CF8E59"/>
<path transform="translate(1205,1248)" d="m0 0h34l4 3 1 6 1 28v56l-2 6-6 3-7 1h-18l-6-5-6-13-4-13-1-6v-9l9-3v-23l-1-16v-14z" fill="#FBFCFC"/>
<path transform="translate(1555,1534)" d="m0 0h62l1 1v64l-1 1h-62l-2-1v-39l1-25z" fill="#47B2C5"/>
<path transform="translate(894,1248)" d="m0 0h31l6 2 1 2v91l-2 5-4 2-8 1h-20l-5-5-6-16-1-5v-20l4-3 1-5 1-46z" fill="#FBFCFC"/>
<path transform="translate(1146,1247)" d="m0 0h26l9 2 3 4 4 16v9l-4 12-2 4 1 29v23l-3 3-8 2h-24l-4-3-1-4-1-70v-25z" fill="#FBFCFC"/>
<path transform="translate(1806,1083)" d="m0 0h8l1 1v6l-1 2 4 1 2 1 35 2 5 2-1 5-4 4-12 1h-27l-1 37-1 10 1 5-1 3-7-1-13-7-16-12-14-11-12-11-13-12-4-5v-8l1-1 67-2-1-3 3-6z" fill="#CF8E59"/>
<path transform="translate(833,1248)" d="m0 0h34l4 3 2 14-1 21-1 15v19l1 26-4 3-9 2h-25l-3-3-1-15v-41l1-42z" fill="#FBFCFC"/>
<path transform="translate(790,1247)" d="m0 0h14l12 2 2 3 2 16v24l-1 55-4 3-14 1h-15l-5-1-1-2-1-13-1-52v-34l1-1z" fill="#FBFCFC"/>
<path transform="translate(1761,702)" d="m0 0h14l9 2 8 9 6 10 2 1v8l2 6 10 6 3 1h14l11-3 5-4 1-3v-11l-6-7-5-2h-19l-9 2-3 2h-6l1-4 8-8 7-3 6-1h16l8 3 7 6 6 9 1 3v9l-3 9-5 7-10 6-8 2h-13l-9-3-8-6-3-6-4 1-4 5-10 8-3 1h-19l-10-4-6-5-5-10-1-4v-15l5-8 9-6z" fill="#CF8E59"/>
<path transform="translate(219,537)" d="m0 0 3 1 3 6 1 3-3 14-7 20-9 19-11 16-10 12-8 7-10 9-14 9-19 9-10 3-13 2-18 4-1 23v79l-1 53v53l-1 17-4 1-1-22v-211l3-3 26-5 16-5 14-7 11-9 5-5 13-12 6-5 9-12 9-16 7-16 9-26 2-4z" fill="#FBFCFB"/>
<path transform="translate(824,1526)" d="m0 0h194l42 1h77l11 1 42 1h146l43-1h98l-3 2-19 6-1 1-24 3-15 1h-23l-10-2-7-1-2-2 3-2 30-1v-2l-62 4-70 1-4 2v2l-2 1h-11l-12 1h-5l-2 2-8-3-6-1v-2l-8-1h-41l-84-2-21-1-6-2-9-1-54-2-51-1h-173v-1z" fill="#064F74"/>
<path transform="translate(1697,1528)" d="m0 0h216l-2 6-2-2-6 1-2 2-6 2h-4l-1 3-6 2v6l-6 1v2l-4 1-2 4-4-1-4-3h-12l-7-2-2 1h-7v-2l-11 1-11-1-20-2-7-1-18-1-22-3-20-1-18-1-11-3-1-1z" fill="#064E73"/>
<path transform="translate(88,1309)" d="m0 0h2l1 4 1 42 2 4 10 2 14 2 20 6 18 8 19 12 10 8 10 10 11 16 11 21 6 18 5 22v2l263 1v1l-14 1-3 1-77 1-12-1-1-1h-28l-2 1-22 2h-16l-19 1-19 3h-59l-6-21-3-14-2-8-11-22-7-11-9-12-8-7v-2h-2v-2l-5-2-16-9-9-3-18-7-18-5-18-4v-56z" fill="#FBFCFC"/>
<path transform="translate(9,1734)" d="m0 0 1 4h2l1 8 1 18 2 22v12l1 3 1 15 1 5v7l4 8-2 3-1 10 1 8-1 4 4 7 3 14 1 1v7l2 1-3 1 3 5 8 3-2 1v3l4 5-2 5 3-1-1 3-3 1v2h-3l2 3v6l-4 2h-3l-4 2h-3l-3 6v10h-2l2 9-2 12-4 4-3 1-1-1v-7l2-3h-2l-1-12v-185l1-14z" fill="#064E73"/>
<path transform="translate(1738,1197)" d="m0 0 10 3 12 12 11 14 4 1 4-10 5-8 7-7 6-3 4-1h29l11 2 8 5 6 8 4 10v17l-4 10-11 12-4 2h-9l-1-4 11-9 4-5 2-6v-16l-4-8-6-4h-20l-18 1-6 4-4 8-1 3v10l1 3v7l-10-3-6-4-11-12-8-8-6-8v55l-11-1v-69z" fill="#CF8E59"/>
<path transform="translate(1879,1558)" d="m0 0h4v4l5-2 5 2 2 4 2 2v4l5-1 1 1 1 12 1 4h2l-1 7-5 5h-2v2l-2 1h-24l-6-2-13-2h-13l-11 2-4-1-6 1-7 1h-7l-3 1-9-1-4-3 1-5 7-1 1 2v-3l4-1 8 1 2-2h3l1-4 4 1 5-1 5 1 1-4 2-5-4-1-5-2 5-5 4-1 1 8 8-1 1-5 3-1 4 4h4l3-3h5l2-7 3-2h3v-2z" fill="#064E73"/>
<path transform="translate(1765,1302)" d="m0 0 11 1 8 3 11 8 32 32 7 8 9 7 5 1-2-15-1-16v-26l3-3h10l1 1-1 41-2 24-2 3-11-1-12-5-10-8-20-20-4-5-10-8-8-5-6-2h-12l-9 4-4 6-1 3v13l4 10 11 11 1 5-13-1-8-6-5-15-1-6v-17l3-10 8-6 12-5z" fill="#CF8E59"/>
<path transform="translate(1412,1973)" d="m0 0h1v48l-1-2-2 1h-92l-1-2-6-3 1-2h6v-2h2v-3l-3-1 3-1v-2h2v-2h2l1-3h2v-5l7 2h7l5-4 1 3v3l4 2v-2h3l1-3 3-1 5 1 4-2 1-4-1-3 3-3 6-3h3 8l4 3v2l4 1 4 3v7l4-1h4l5 1z" fill="#064E73"/>
<path transform="translate(1738,993)" d="m0 0h9l1 3v38l1 1 10 1h12l6-1 2-22 2-9 3-5 8-4 7-1h34l12 3 7 6 5 8 2 7-1 9-7 12-7 6-5 2h-7l-2-4 15-15 1-3v-12l-4-4-10-3-34 1-6 2-3 20v10l1 9-6 1h-28l-16-1-3-2v-43z" fill="#CF8E59"/>
<path transform="translate(1949,450)" d="m0 0h7l4 2h2v2h5l2 2v5h4 6v5l-7 1-3-1-1 1h-6l-3-1-10 5h-7v5l6 2 2 4 5-1 1 2h-2v3h-2v3h-94l-5-5 5-2-1-4 7-1 5-3-4-5 5-2 10 1 3-2 7-1h20l5-1v-3h8l3-3h7l1-6 4-1 2 3 4-1z" fill="#064E73"/>
<path transform="translate(568,1214)" d="m0 0 72 1 237 1h472l57 1 80 1v1h-117l-682-1h-169l-204 1h-114v-1l15-1 125-2h85z" fill="#F4F3EC"/>
<path transform="translate(1249,528)" d="m0 0h228l-2 1-1 5-4 1v4l-2 1h-170l-7-2-3-2-15-3-5-3-19-1z" fill="#FCFDFD"/>
<path transform="translate(1739,784)" d="m0 0 13 1 16 4 16 8 25 12 13 4 18 2 19 1 1 5-6 5-4 1h-11l-21-2-13-5-18-8-16-8-16-7h-6l-1 58h-10l-1-14v-50z" fill="#CF8E59"/>
<path transform="translate(1743,1416)" d="m0 0h111l4 1v11l-2 2-5 1-57 2h-25l-20-1v2l3 1-1 4-1 1h-10l-2-8-1-15z" fill="#CF8E59"/>
<path transform="translate(229,530)" d="m0 0h37l183 1v1l-29 1-15 1-17 2-14 1-7 2h-10l-1 1-14 1-76 1 24 1v1l-60 1-3 3-2 6-1-4 1-5-3-5-1-2-4 1 2-4 5-4z" fill="#ECF3F1"/>
<path transform="translate(497,1971)" d="m0 0h1l1 49-1 1h-47l-40-1-9-1v-2l-5 1-2-4 4-1h11l1-3 5-4 5-1 2 1v2h2l-2-4 6-5h2v2h2l1 5 3-1h8l1-4 5 1 3 1 1-7 3-3 3 1 1-7-2-1-1-5-2-3 3-1-1-2 3 1 1 6 6 3 1 3-4 4h-2l1 6 2-1 3-3 7 4 1 3-1 2h-2v2l9-1v-5h6v6l4 2 1-1 1-34z" fill="#064E73"/>
<path transform="translate(1825,901)" d="m0 0h9l10 5 3 4 1 9-3 8-6 4-10 2h-26l-9-2-3-2-2-10v-10l4-4 6-3z" fill="#FAE2C8"/>
<path transform="translate(352,1526)" d="m0 0h42l313 1v2h-200l-42 1-96 1h-191l-30-1-3-1v-2z" fill="#0F5B7C"/>
<path transform="translate(1063,1261)" d="m0 0h9l5 4 2 5 1 9v49l-3 5-4 3-9 1-5-3-1-4v-40l1-16v-8z" fill="#47B2C5"/>
<path transform="translate(1775,621)" d="m0 0h16l10 4 2 3 1 17-5 4-10 3-8 1h-10l-16-3-5-3-2-4v-10l4-7 8-4z" fill="#FBE2C8"/>
<path transform="translate(311,1835)" d="m0 0 5 5 1 3 6 1 1 4 5 3v5l-7 2-6-1v8l-5-1 2-2v-3l-7-1-3-2 1 6h-6l-1-5h-9l-12 2-7 2h-5l-1-1h-6l-3 3-6-1-1-2-6-2 1-7 6-2 3 1 6-3 7 1 1-3 6-3 3-3 2 2 1 4 8-1 5 1 4-2 2-6h4v3h6z" fill="#064E73"/>
<path transform="translate(1762,714)" d="m0 0h13l12 3 5 5 3 12v6l-10 4-11 2h-11l-8-2-4-2-4-7v-8l4-8 7-4z" fill="#FAE2C8"/>
<path transform="translate(824,1526)" d="m0 0h194l42 1h77l11 1 42 1h81v1l-54 1-21 1-3 1-77 1-25 1-21-1-6-2-9-1-54-2-51-1h-173v-1z" fill="#075778"/>
<path transform="translate(1869 2e3)" d="m0 0 5 5 15-1v2l7-1 3-1 4 2 3 12-1 4h-89l-6-3v-3l7-1h6l7-4 11 1 13-4 11 1-2-4 4-4z" fill="#064E73"/>
<path transform="translate(1757,1107)" d="m0 0h51l-2 4v16l1 13v11l-5-2-12-10-11-8-14-11-12-11z" fill="#FBE2C8"/>
<path transform="translate(532,1260)" d="m0 0 5 1 6 8 5 13 2 11v16l-2 13-6 9-7 4-5-2-1-4v-19l1-17v-27z" fill="#47B2C5"/>
<path transform="translate(1221,1487)" d="m0 0h265v1l-16 1-2 1h-11l-11-1-8 1-62 2-25 2-11 2h-9l-8-1-32-1-35-2h-14l-15-2-6-2z" fill="#FCFDFD"/>
<path transform="translate(73,390)" d="m0 0h2v2l4 1v26h102l-3 5-1 1-36 2h-8l-14 1-18 2h-16l-7-5-1-5h-5l-2 2-4-7v-2l-7 1 2-1 2-10h3l2-4 3-2 2-6z" fill="#064E73"/>
<path transform="translate(158,632)" d="m0 0 2 1-14 11-12 7-15 5-24 5-7 2-1 1v178l-1 32h-1v153l-2 1-1-262v-58l1-42 2-5 9-3 29-7 12-5 12-6z" fill="#ECF3F2"/>
<path transform="translate(572,144)" d="m0 0h1v355h-3v-300l1-54z" fill="#064E73"/>
<path transform="translate(747 2e3)" d="m0 0h5l4 2h10l4 2 10 3 1 3v9l-82-1 1-5 5-2 11-2 2-2 10 1 2-1 4 1v-2l10-4z" fill="#064E73"/>
<path transform="translate(426,1610)" d="m0 0 2 1v312l-1 23h-2v-311z" fill="#064E73"/>
<path transform="translate(1975,82)" d="m0 0 2 1v224l-1 110-2-1v-333z" fill="#064E73"/>
<path transform="translate(886,968)" d="m0 0h24l-2 4-4 3-1 46-2 2h-9l-3-2-1-4 1-6v-36l-7-2v-4z" fill="#47B2C5"/>
<path transform="translate(1069,771)" d="m0 0h1l1 8h78l4 4 1 5v11l-2 1h-30l1-3 9-3-1-2h2l1-5-5-1h-32l-24-1-4-2z" fill="#F7F2E9"/>
<path transform="translate(572,1608)" d="m0 0h1v274h-2l-1-15v-228l1-30z" fill="#064F73"/>
<path transform="translate(54,470)" d="m0 0 4 1v2l4-1v3l3 1-5 5h-8l10 2h7l5 1 6-1 1 4 5 1 1 2-15 1h-64v-1l14-1 4-1v-2h8v-2h4v-2h-7l1-4h2l2-5 1-1h6l7 1z" fill="#0C5E7E"/>
<path transform="translate(1702,1707)" d="m0 0 3 2h6l3 1 1 3-6 1-1 4-2 1h-2v5l-4 1-4-4-7 1-2 9-8 1 1-3-5-1v-3l-2 1v2l-2 1 1 3-1 1h-7l3-5v-3l-5 2-6-1v-7l-1-4 21-2h5l1 2 9-3 7 3v3l2-1v-3l-3-3h2l1-3z" fill="#064E73"/>
<path transform="translate(1172,1928)" d="m0 0h6l7 3 5 2-4 1-5 1 7 3-2 1v4l4 1v2l3-1 1 3 3 1v6h-14l-12-1v-1l10-1-16-2-8-3-5-2-1-2 2-3h2l1-4 2-1v7l1 2h4l1-6 1-2-2-6 4-1 3 4 4-1z" fill="#064E73"/>
<path transform="translate(145,1527)" d="m0 0h169v1l-42 1 97 1v1h-191l-30-1-3-1z" fill="#1B7491"/>
<path transform="translate(1638,419)" d="m0 0h22l25 1h9l12 3-2 4-28 2h-30l-12-1-4-5 5-1z" fill="#064E73"/>
<path transform="translate(1023,491)" d="m0 0h19l14 1 8 3v5l-1 1-15 1h-20l-27-1-11-1v-2l26-5z" fill="#064E73"/>
<path transform="translate(1305,1771)" d="m0 0 4 1 3 1 7-1 2 1v2l12-1 3 2-5 5-5-2-4-3v4l3 3-2 5-9 3-1-4-7-1-1-4 3-1 1-2 5 5 5-2-6-3v-2l-9-1-2 6-3 5-3 1-6-3-1-4h-3l1 7-6-1-4-4-1-4 7-6 3-1h7l3 3v2l6-5z" fill="#064E73"/>
<path transform="translate(1220,1954)" d="m0 0h185v1l-5 1-135 1-11 1h-11v3l-1 2-17-2-2-5-2 2h-7v2l-5-1v-2l-4-1v-1z" fill="#075074"/>
<path transform="translate(425,1215)" d="m0 0m-85 0h77l8 1 93 1v1l-204 1h-114v-1l15-1z" fill="#F2F3ED"/>
<path transform="translate(1170,489)" d="m0 0 8 1 9 2 8 2h7l3-1v8h-69v-4h7l25-7z" fill="#064E73"/>
<path transform="translate(146,1385)" d="m0 0 6 1 19 11v2h2l6 7 5 4 10 14 6 11 10 20 3 16 6 22-1 2-4-10-10-30-8-16-9-16-9-10-7-8-10-8-11-7-4-3z" fill="#F7F2E9"/>
<path transform="translate(895,490)" d="m0 0 17 1 6 3 1 6h-63l5-6 14-1z" fill="#064E73"/>
<path transform="translate(409,1267)" d="m0 0h3l1 17 5 25v8l-5 2-7-1 1-13 1-37z" fill="#47B2C5"/>
<path transform="translate(1413,352)" d="m0 0h2v137l-2-1-1-13v-66z" fill="#085175"/>
<path transform="translate(352,1687)" d="m0 0h1v195l-3-1v-32z" fill="#064E73"/>
<path transform="translate(1935,1601)" d="m0 0h111v1l-18 1-72 1-9 1-1 1h-16l-14-1-1 2h-2l1-5z" fill="#064E73"/>
<path transform="translate(356,1487)" d="m0 0h135v1l-14 1-3 1-77 1-12-1-1-1-28-1z" fill="#FCFDFD"/>
<path transform="translate(779,73)" d="m0 0h11v1h-9v83l-1 49-2-4v-99z" fill="#095074"/>
<path transform="translate(824,1526)" d="m0 0h194v1h-12v2l-56-1h-173v-1z" fill="#0C5779"/>
<path transform="translate(1775,621)" d="m0 0h16l6 2 1 3-7 2-28 2-7 2-5 1-1-4 5-5 5-2z" fill="#F8F0E5"/>
<path transform="translate(12 2e3)" d="m0 0 4 2 2-1 1 5 4 3 6 1v2l5 3-2 4-4 1-1-4h-3l1 5-6 1h-10v-19l3-1z" fill="#064E73"/>
<path transform="translate(1341,1536)" d="m0 0 3 1-1 36-1 103h-1l-1-7v-130z" fill="#074F73"/>
<path transform="translate(987,1757)" d="m0 0h1l1 69v58l-2-1-1-12v-111z" fill="#064E73"/>
<path transform="translate(1630,1522)" d="m0 0h41l19 1 5 2-1 2h-74v-4z" fill="#F8F3EA"/>
<path transform="translate(600,494)" d="m0 0h12v1l12 1 7 1 3 1 1 3-1 1h-44l-4-2 7-4z" fill="#064E73"/>
<path transform="translate(388,482)" d="m0 0h32l6 1-2 4-5 2h-34l-1-2 1-3z" fill="#064E73"/>
<path transform="translate(767,705)" d="m0 0h1l1 17 28 3h21l9-3h3v-10h1v16h-63l-1-3z" fill="#F5F3EB"/>
<path transform="translate(2026,449)" d="m0 0 8 1 5 4 4 12-1 4-3 2h-6l-1-5-3-1 6-3-5-2-1 2-2-1-2-4-1-6z" fill="#064E73"/>
<path transform="translate(1381,1959)" d="m0 0h8l3 1h7l1 3-1 1h-7v3l-9 2h-10v3h-2v-3l-5-2-6-2 3-2 16-3z" fill="#064E73"/>
<path transform="translate(1175,664)" d="m0 0 15 1v2l-9 5-1 5 2 3v6h-10v-21z" fill="#F8EFE3"/>
<path transform="translate(1006,1527)" d="m0 0h54l43 1-1 2h-40l-1 1-55-2z" fill="#064F73"/>
<path transform="translate(1336,1529)" d="m0 0h29v1l-23 1v2h-61v-1l-6-1v-1z" fill="#075678"/>
<path transform="translate(158,632)" d="m0 0 2 1-14 11-12 7-15 5-24 5-7 2-4 5v-6l5-3 31-7 13-5 14-7z" fill="#EFF3EF"/>
<path transform="translate(991,945)" d="m0 0 6 2 21 3 6 2v2l-18 1h-16v-9z" fill="#F8F3EA"/>
<path transform="translate(753,721)" d="m0 0h1v38l-3 5-1 3h20l-1-11 2 3 1 4v7l-3 2-5 1-15-1-2-1 1-9 3-5 1-8z" fill="#F7F3EA"/>
<path transform="translate(434,481)" d="m0 0h9l7 1 9 1 1 7h-22l-4-1v-5z" fill="#064E73"/>
<path transform="translate(149,1388)" d="m0 0 6 2 11 7 12 11 6 7 8 11 7 11 7 16v2h-2l-8-16-9-16-9-10-7-8-10-8-12-8z" fill="#F9E3CB"/>
<path transform="translate(1331,1049)" d="m0 0h11l6 2-4 3-6 2-1 6 2 6-4 1-4-2-1-3v-14z" fill="#F8F1E7"/>
<path transform="translate(1916,501)" d="m0 0h5l5 25 7 24 2 7-5-5-3-9-2-10-3-10-3-7-3-12z" fill="#F8F2E9"/>
<path transform="translate(716,207)" d="m0 0h62v3h-41l-21-1z" fill="#064E73"/>
<path transform="translate(880,1936)" d="m0 0 6 1h10l-1 2-8 1 1 5-2 1h-10l-9-2v-4l4-3 4 1z" fill="#064E73"/>
<path transform="translate(1283,1743)" d="m0 0h41l-2 2-14 3-11 1-11-1-2-1z" fill="#064E73"/>
<path transform="translate(1204,1609)" d="m0 0h2v23l-1 43-2-3v-61z" fill="#075074"/>
<path transform="translate(958,1951)" d="m0 0 18 1 2 2h-62l-13-1v-1z" fill="#064F74"/>
<path transform="translate(808,1946)" d="m0 0 5 1h5l2 2v5l-2 1h-15l-2-5 3-3z" fill="#064E73"/>
<path transform="translate(1094,665)" d="m0 0h59v5l-3 1-9-2-13-2h-29l-5-1z" fill="#F8F3EA"/>
<path transform="translate(648,2012)" d="m0 0 4 1 9 1h7l1 4-3 2h-9l-9-1-2-1-1 2h-2l2-6z" fill="#064E73"/>
<path transform="translate(1767,1755)" d="m0 0h2v24l-1 30h-2v-49z" fill="#075074"/>
<path transform="translate(1456,935)" d="m0 0 3 1v90h-1l-1-77-2-8-3-5z" fill="#F7F3EA"/>
<path transform="translate(1776,1746)" d="m0 0h53l-4 3h-18l-5 1-6-1h-13l-7-2z" fill="#064E73"/>
<path transform="translate(2e3 443)" d="m0 0 8 8 1-2h4l1 7-4-2h-7l-2 1-9-2 2-3 3-1v-4z" fill="#064E73"/>
<path transform="translate(1414,217)" d="m0 0h2l-1 53-2 1v-52z" fill="#064E73"/>
<path transform="translate(1153,938)" d="m0 0h7l-2 7 2 3v6l-5 1-3-3v-13z" fill="#F8F3EA"/>
<path transform="translate(80,419)" d="m0 0h84l-3 2h-9l-10 2-3-2-59-1z" fill="#065577"/>
<path transform="translate(986,1894)" d="m0 0h1v35l-1 15-2-1-1-10 1-11 1-27z" fill="#064E73"/>
<path transform="translate(1343,934)" d="m0 0h34l6 2-1 3-19-1-4-2-16-1z" fill="#F5F0E7"/>
<path transform="translate(1121,721)" d="m0 0h1v48h-10l-5-1 3-3 10-2z" fill="#F5F3EB"/>
<path transform="translate(1860,1951)" d="m0 0h23l-1 2h-4v2l-8 1-10 1-3-1-1-4z" fill="#064E73"/>
<path transform="translate(963,973)" d="m0 0h1v95l-4 1 2-3z" fill="#F3F3EC"/>
<path transform="translate(254,301)" d="m0 0h2v5l4 2v4h-5v-2l-6 1h-4l-3-2v-2l6-1v-2h3v-2z" fill="#064E73"/>
<path transform="translate(914,764)" d="m0 0h1v36l-1 1h-12v-1h5l1-5 4-4 1-4z" fill="#F5F3EB"/>
<path transform="translate(12,1978)" d="m0 0h2v5h2l2 8-3 6-5 1v2h-2v-9l2-2 2 1 1-2 2 1-3-4z" fill="#064E73"/>
<path transform="translate(102,1950)" d="m0 0h9l3 1h8v3l-11 1h-15l-1-2 1-2z" fill="#064E73"/>
<path transform="translate(158,632)" d="m0 0 2 1-14 11-12 7-5 2h-6v-2l12-5 12-6z" fill="#F3F3EC"/>
<path transform="translate(1548,1951)" d="m0 0 1 3-1 1h-22l-40-1v-1l61-1z" fill="#0D5B7D"/>
<path transform="translate(143,481)" d="m0 0 5 1 2 2v5h-13v-5z" fill="#064E73"/>
<path transform="translate(1816,475)" d="m0 0h9l-1 2 1 1 4 3-12 1h-7v-3-2z" fill="#064E73"/>
<path transform="translate(1411,108)" d="m0 0 2 1 3 15v11h-4z" fill="#075075"/>
<path transform="translate(1485,1954)" d="m0 0h41l-4 3-7 1-1-2h-25z" fill="#064E73"/>
<path transform="translate(1275,772)" d="m0 0h1v27l-4 1h-8l5-6 5-2z" fill="#F4F3EC"/>
<path transform="translate(753,721)" d="m0 0h1v38l-3 5-1 4h-2v-6l3-5 1-8z" fill="#F4F3EC"/>
<path transform="translate(1049,1042)" d="m0 0h1v28l-1 1h-17v-1l13-1 3-9z" fill="#F0F3EE"/>
<path transform="translate(913,675)" d="m0 0h1v13l-2 3v3l15 1 3 2-4 1h-11l-5-3v-5l2-4z" fill="#F3F3EC"/>
<path transform="translate(779,215)" d="m0 0h1v36l-3-4 1-31z" fill="#0A5579"/>
<path transform="translate(989,743)" d="m0 0h1v55l-1 1h-5l4-4z" fill="#F2F3ED"/>
<path transform="translate(930,1888)" d="m0 0h18l-4 2-5 3h-6l-5-3z" fill="#064E73"/>
<path transform="translate(1128,1053)" d="m0 0h1v16l-4 1h-13v-1l7-1 8-6z" fill="#F5F2EA"/>
<path transform="translate(1761,1316)" d="m0 0h12l-1 3-10 1-7 3-2-2 2-3z" fill="#F8EEE0"/>
<path transform="translate(896,664)" d="m0 0 17 1 2 2-1 5h-3l-9-6-6-1z" fill="#F6F1E7"/>
<path transform="translate(886,968)" d="m0 0 22 1-3 3-17-1-5 1-1-3z" fill="#075678"/>
<path transform="translate(1449,1050)" d="m0 0h2l-2 4-8 6-5 3-4-1 15-11z" fill="#F8EEE1"/>
<path transform="translate(1813,653)" d="m0 0h2l1 3-3 4-10 3h-3v-2l11-6z" fill="#F8EEE1"/>
<path transform="translate(1743,655)" d="m0 0 4 2 8 5 10 4-2 2-8-1-4-4-6-4v-2h-2z" fill="#F8F0E4"/>
<path transform="translate(210,1465)" d="m0 0 2 1 6 24 1 5-2-1-8-25z" fill="#F5F3EB"/>
<path transform="translate(1109,695)" d="m0 0h11l1 1v14l-5-10-2-3-5-1z" fill="#F6F3EA"/>
<path transform="translate(2e3 459)" d="m0 0 5 1 3 5-1 4-3-1-2-1v-2h-2l-1-5z" fill="#064E73"/>
<path transform="translate(1379,981)" d="m0 0 1 3-1 7 3 3h12l-2 2-11 1-4-3-1-7z" fill="#F3F3EC"/>
<path transform="translate(1205,1955)" d="m0 0h17l-1 3h-7v2l-5-1v-2l-4-1z" fill="#064E73"/>
<path transform="translate(1111,953)" d="m0 0 4 2 6 7 2 6v8h-1l-1-7-2-5h-2l-4-8z" fill="#F6F3EA"/>
<path transform="translate(744,1951)" d="m0 0h7l2 2-4 2h-10-3l-2-2 1-1z" fill="#064E73"/>
<path transform="translate(1152,936)" d="m0 0h6l-2 2-3 1-1 13-2-1-1-3v-9z" fill="#F3D4B5"/>
<path transform="translate(1840,1682)" d="m0 0h2l-1 15-2 7h-1v-10z" fill="#0A4F72"/>
<path transform="translate(768,736)" d="m0 0h16v1l-10 1-4 4-1 12h-1z" fill="#F3F3ED"/>
<path transform="translate(979,664)" d="m0 0 9 1 2 1v21h-1l-1-17-7-3-3-2z" fill="#F6F2EA"/>
<path transform="translate(1009,1954)" d="m0 0h16l-2 4-4 1-6-2z" fill="#064E73"/>
<path transform="translate(661,664)" d="m0 0 4 2-2 4-6-1-6-3v-1z" fill="#F7F3EA"/>
<path transform="translate(1414,188)" d="m0 0h1v19l-2 2-1-1 1-18z" fill="#064E73"/>
<path transform="translate(1308,666)" d="m0 0h11v5l-7-1z" fill="#F8F2E9"/>
<path transform="translate(1020,799)" d="m0 0 4 1 27 1v1h-32z" fill="#F8F3EA"/>
<path transform="translate(819,737)" d="m0 0h11l1 1v7l-1-3-5-1-2-2z" fill="#F5F3EB"/>
<path transform="translate(23,1922)" d="m0 0 3 1v5l-2 2h-3v-2h-2l2-5z" fill="#075678"/>
<path transform="translate(372,481)" d="m0 0 5 1v4l-1 3-6-4-1-2h3z" fill="#064E73"/>
<path transform="translate(1252,1064)" d="m0 0h3v5l-1 1h-8l5-5z" fill="#F7F3EA"/>
<path transform="translate(454,1979)" d="m0 0 4 2-1 4-5 1-1-4z" fill="#064E73"/>
<path transform="translate(1230,687)" d="m0 0 2 3-1 3h-3zm-3 6m-1 1m-1 1m-2 1 2 1-8 8v-3z" fill="#EDE8DA"/>
<path transform="translate(908,971)" d="m0 0 1 2-4 8-1 6h-1v-12z" fill="#F3F3ED"/>
<path transform="translate(1967,447)" d="m0 0 5 1 5 2-1 3-7-1z" fill="#064E73"/>
<path transform="translate(23,2014)" d="m0 0h5l1 6-1 1h-9l4-3z" fill="#065577"/>
<path transform="translate(1849,936)" d="m0 0 4 1-3 4-8 1v-2z" fill="#F8EFE3"/>
<path transform="translate(1936,562)" d="m0 0h2l8 15-4-2-4-5z" fill="#F8F3EA"/>
<path transform="translate(685,2014)" d="m0 0 3 1 5-1 1 2-3 3-5 1z" fill="#064E73"/>
<path transform="translate(1166,1916)" d="m0 0 5 1 1 5-5 1-1-4z" fill="#064E73"/>
<path transform="translate(1788,749)" d="m0 0h3l-1 5-8 2 1-3z" fill="#F8EFE2"/>
<path transform="translate(1847,473)" d="m0 0 4 2 1 3-6 1-2-4z" fill="#064E73"/>
<path transform="translate(1330,1051)" d="m0 0 2 3 1 7-1 6-2-3z" fill="#FBE2C8"/>
<path transform="translate(883,974)" d="m0 0h6l1 1v10l-3-4-1-5z" fill="#F6F3EB"/>
<path transform="translate(1347,1781)" d="m0 0h5l1 5h-5l-2-4z" fill="#064E73"/>
<path transform="translate(1726,1705)" d="m0 0h6v5h-6l-1-3z" fill="#064E73"/>
<path transform="translate(2044,480)" d="m0 0 4 2v7h-3l-1-2z" fill="#47B2C5"/>
<path transform="translate(94,470)" d="m0 0 8 1-1 4-5-1v-2l-4-1z" fill="#075678"/>
<path transform="translate(237,421)" d="m0 0h12l-3 3h-9z" fill="#064E73"/>
<path transform="translate(1110,1008)" d="m0 0 5 3 7 7h-3l-9-8z" fill="#F5F3EB"/>
<path transform="translate(1261,693)" d="m0 0 7 6 3 5-4-2-6-7z" fill="#F7F1E7"/>
<path transform="translate(1743,655)" d="m0 0 4 2 8 5-1 2-5-2-4-3v-2h-2z" fill="#F9EBDB"/>
<path transform="translate(2047,1738)" d="m0 0" fill="#47B2C5"/>
<path transform="translate(2047,1743)" d="m0 0" fill="#47B2C5"/>
</svg>
